HIERARCHY
ROOT SpineBase
{
  OFFSET 0.000000 0.000000 0.000000
  CHANNELS 6 Xposition Yposition Zposition Zrotation Xrotation Yrotation
  JOINT SpineMid
  {
    OFFSET 0.000000 31.895382 0.000000
    CHANNELS 3 Zrotation Xrotation Yrotation
    JOINT SpineShoulder
    {
      OFFSET -0.099820 23.688798 -0.884535
      CHANNELS 3 Zrotation Xrotation Yrotation
      JOINT Neck
      {
        OFFSET -0.083555 7.843685 -0.666980
        CHANNELS 3 Zrotation Xrotation Yrotation
        JOINT Head
        {
          OFFSET -5.208417 10.946081 3.622018
          CHANNELS 3 Zrotation Xrotation Yrotation
          End Site
          {
            OFFSET 0 0 0
          }
        }
      }
      JOINT ShoulderLeft
      {
        OFFSET -9.344543 -3.831037 12.594064
        CHANNELS 3 Zrotation Xrotation Yrotation
        JOINT ElbowLeft
        {
          OFFSET -1.449533 -29.453872 9.520934
          CHANNELS 3 Zrotation Xrotation Yrotation
          JOINT WristLeft
          {
            OFFSET -6.396233 -23.027047 -8.911029
            CHANNELS 3 Zrotation Xrotation Yrotation
            JOINT HandLeft
            {
              OFFSET -1.883683 -3.938136 -2.329216
              CHANNELS 3 Zrotation Xrotation Yrotation
              JOINT HandTipLeft
              {
                OFFSET -2.245854 -5.205093 -2.240469
                CHANNELS 3 Zrotation Xrotation Yrotation
                End Site
                {
                  OFFSET 0 0 0
                }
              }
              JOINT ThumbLeft
              {
                OFFSET 1.557860 -0.110232 -3.761793
                CHANNELS 3 Zrotation Xrotation Yrotation
                End Site
                {
                  OFFSET 0 0 0
                }
              }
            }
          }
        }
      }
      JOINT ShoulderRight
      {
        OFFSET 7.909610 -3.174527 -14.382579
        CHANNELS 3 Zrotation Xrotation Yrotation
        JOINT ElbowRight
        {
          OFFSET 7.187679 -21.636140 -6.779915
          CHANNELS 3 Zrotation Xrotation Yrotation
          JOINT WristRight
          {
            OFFSET -20.504266 -11.294442 -4.502878
            CHANNELS 3 Zrotation Xrotation Yrotation
            JOINT HandRight
            {
              OFFSET -5.344848 0.066551 -0.511281
              CHANNELS 3 Zrotation Xrotation Yrotation
              JOINT HandTipRight
              {
                OFFSET -5.795171 -1.680270 -3.733456
                CHANNELS 3 Zrotation Xrotation Yrotation
                End Site
                {
                  OFFSET 0 0 0
                }
              }
              JOINT ThumbRight
              {
                OFFSET -4.147676 2.771376 -0.067918
                CHANNELS 3 Zrotation Xrotation Yrotation
                End Site
                {
                  OFFSET 0 0 0
                }
              }
            }
          }
        }
      }
    }
  }
  JOINT HipLeft
  {
    OFFSET -3.398682 -0.197534 1.365795
    CHANNELS 3 Zrotation Xrotation Yrotation
    JOINT KneeLeft
    {
      OFFSET -2.983978 -32.603686 3.982944
      CHANNELS 3 Zrotation Xrotation Yrotation
      JOINT AnkleLeft
      {
        OFFSET 8.194789 -35.247226 3.358874
        CHANNELS 3 Zrotation Xrotation Yrotation
        JOINT FootLeft
        {
          OFFSET -7.978187 -4.496759 -8.294819
          CHANNELS 3 Zrotation Xrotation Yrotation
          End Site
          {
            OFFSET 0 0 0
          }
        }
      }
    }
  }
  JOINT HipRight
  {
    OFFSET 2.335690 2.261558 -9.247894
    CHANNELS 3 Zrotation Xrotation Yrotation
    JOINT KneeRight
    {
      OFFSET 6.865015 -35.610988 -5.942818
      CHANNELS 3 Zrotation Xrotation Yrotation
      JOINT AnkleRight
      {
        OFFSET 9.177423 -35.301779 -0.876255
        CHANNELS 3 Zrotation Xrotation Yrotation
        JOINT FootRight
        {
          OFFSET -6.931086 -5.268961 -7.313553
          CHANNELS 3 Zrotation Xrotation Yrotation
          End Site
          {
            OFFSET 0 0 0
          }
        }
      }
    }
  }
}
MOTION
Frames: 14
Frame Time: 0.033333
52.188227 75.121482 359.769157 4.546856 -1.009589 64.163613 -0.096967 0.451552 -63.974335 0.444550 0.088553 0.221151 14.266739 11.706228 -3.126812 0.000000 0.000000 0.000000 -4.537021 0.839930 -0.344141 19.018145 -19.680819 1.604911 11.666631 -13.442302 1.830897 -4.898938 63.581323 -32.505180 0.000000 0.000000 0.000000 0.000000 0.000000 0.000000 -30.620982 -4.741201 5.710594 34.203956 -5.632148 3.937880 12.654112 2.873021 -10.800086 18.847222 -17.851490 30.857616 0.000000 0.000000 0.000000 0.000000 0.000000 0.000000 -5.842533 4.373808 -63.552918 -1.618301 7.430104 0.519197 17.288833 -16.431067 0.715619 0.000000 0.000000 0.000000 -1.026395 7.564620 -63.368344 1.697990 -1.595580 -0.739270 -9.182710 5.847429 6.137862 0.000000 0.000000 0.000000
52.197186 75.120214 359.763199 4.505484 -0.974339 64.261390 -0.078226 0.408253 -64.074010 0.382485 0.106710 0.216485 14.134182 11.435035 -3.100913 0.000000 0.000000 0.000000 -4.480873 0.788724 -0.342303 19.129074 -19.504601 1.485522 10.513930 -13.641468 3.162337 -24.960224 74.048702 -16.023651 0.000000 0.000000 0.000000 0.000000 0.000000 0.000000 -30.384766 -4.834906 5.599539 34.411215 -5.598598 3.971333 9.952405 3.768601 -10.280799 19.369883 -17.804971 30.132215 0.000000 0.000000 0.000000 0.000000 0.000000 0.000000 -6.157012 4.681967 -63.661094 -1.012980 7.516547 0.540729 12.447361 -11.849863 -0.368387 0.000000 0.000000 0.000000 -0.997503 7.432574 -63.487870 1.574705 -1.572561 -0.720961 -9.160812 5.836868 6.150632 0.000000 0.000000 0.000000
52.207452 75.100653 359.779969 4.439303 -0.972203 64.252652 -0.057197 0.387685 -64.067960 0.295266 0.115172 0.207898 14.166550 11.198942 -3.114120 0.000000 0.000000 0.000000 -4.355397 0.766745 -0.333535 19.115690 -19.499267 1.486011 4.046295 -5.869636 1.388409 -7.079202 69.200896 -29.337205 0.000000 0.000000 0.000000 0.000000 0.000000 0.000000 -30.112187 -4.986877 5.470829 34.377841 -5.452621 4.069132 9.927964 3.976871 -9.340120 19.909444 -18.458335 30.037367 0.000000 0.000000 0.000000 0.000000 0.000000 0.000000 -6.188561 4.814770 -63.674065 -0.543141 7.567864 0.579045 9.391288 -9.074483 -0.984806 0.000000 0.000000 0.000000 -0.831280 7.338597 -63.489562 1.518538 -1.633215 -0.714200 -9.224064 5.773396 6.183223 0.000000 0.000000 0.000000
52.215815 75.092375 359.798360 4.349395 -0.978497 64.340310 -0.039938 0.362653 -64.158762 0.204786 0.125109 0.197898 14.090287 10.938072 -3.088425 0.000000 0.000000 0.000000 -4.205055 0.757375 -0.322166 19.623155 -19.720885 1.478700 -5.771946 3.952521 2.275525 16.034912 58.356155 -42.901131 0.000000 0.000000 0.000000 0.000000 0.000000 0.000000 -29.987619 -5.156191 5.392104 35.441674 -5.359926 3.689228 9.105290 4.492282 -6.946173 17.819757 -18.876043 28.853571 0.000000 0.000000 0.000000 0.000000 0.000000 0.000000 -6.229382 4.902693 -63.777638 -0.164424 7.676499 0.615734 8.370768 -9.033368 0.414717 0.000000 0.000000 0.000000 -0.744697 7.194565 -63.596245 1.454959 -1.602556 -0.694957 -9.263671 5.740767 6.215407 0.000000 0.000000 0.000000
52.213871 75.026632 359.840516 4.206547 -1.024234 64.356655 -0.007840 0.336770 -64.179510 0.106404 0.116932 0.185449 14.068411 10.765113 -3.057725 0.000000 0.000000 0.000000 -4.001069 0.791486 -0.304578 19.663417 -19.796951 1.509285 -14.758749 5.380504 8.916651 37.093722 52.257044 -55.991867 0.000000 0.000000 0.000000 0.000000 0.000000 0.000000 -30.117878 -5.520328 5.301642 35.123395 -4.771580 3.360034 12.151704 3.390376 -7.897168 14.858673 -17.992211 28.505443 0.000000 0.000000 0.000000 0.000000 0.000000 0.000000 -6.179118 4.960727 -63.819253 0.230338 7.755741 0.655550 9.408813 -10.179257 0.016655 0.000000 0.000000 0.000000 -0.512640 7.045624 -63.625778 1.350970 -1.666621 -0.690796 -9.290624 5.705399 6.256476 0.000000 0.000000 0.000000
52.229452 75.004214 359.874953 4.075257 -1.066848 64.312499 0.003960 0.329092 -64.139757 0.013758 0.112188 0.172701 14.054004 10.760977 -2.978163 0.000000 0.000000 0.000000 -3.789324 0.829139 -0.286354 19.293800 -19.674278 1.534374 -23.388725 6.296450 15.066443 35.036587 51.591323 -48.206954 0.000000 0.000000 0.000000 0.000000 0.000000 0.000000 -29.348696 -5.300067 5.267083 33.487794 -4.479526 3.361003 12.586604 2.744021 -9.899723 13.464404 -16.691562 26.430115 0.000000 0.000000 0.000000 0.000000 0.000000 0.000000 -6.107052 5.064268 -63.807474 0.560127 7.668882 0.672028 13.356698 -13.623826 -0.869617 0.000000 0.000000 0.000000 -0.321626 6.960855 -63.580686 1.392658 -1.752943 -0.701155 -11.268090 6.542906 7.508688 0.000000 0.000000 0.000000
52.244538 75.119650 359.920191 3.960171 -1.113459 64.150217 -0.025779 0.331061 -63.980718 -0.097779 0.107179 0.157879 14.134463 10.929517 -2.889882 0.000000 0.000000 0.000000 -3.548296 0.903506 -0.264475 18.502607 -19.317459 1.542095 -23.917403 12.068101 12.315189 35.915831 38.691610 -42.694699 0.000000 0.000000 0.000000 0.000000 0.000000 0.000000 -28.049657 -4.558970 5.368684 30.388095 -4.259514 3.262697 12.074953 2.030973 -13.259712 12.722559 -14.231661 27.633697 0.000000 0.000000 0.000000 0.000000 0.000000 0.000000 -5.969948 5.112635 -63.678075 0.830693 7.576042 0.694738 19.013775 -18.608282 -1.835331 0.000000 0.000000 0.000000 -0.176019 6.937432 -63.405585 1.416137 -1.835002 -0.719105 -10.823507 6.476674 7.061136 0.000000 0.000000 0.000000
52.277574 75.334554 359.963216 3.897534 -1.150290 63.764379 -0.051983 0.338233 -63.596416 -0.151428 0.130943 0.149360 14.127267 11.065525 -2.801598 0.000000 0.000000 0.000000 -3.414769 0.933594 -0.252938 17.460870 -18.706628 1.489921 -25.359897 10.891341 14.063618 39.709500 33.442839 -42.759843 0.000000 0.000000 0.000000 0.000000 0.000000 0.000000 -26.221225 -3.410440 5.456977 24.398287 -3.724748 3.070116 10.552125 1.710931 -17.071234 13.675968 -11.370587 31.134124 0.000000 0.000000 0.000000 0.000000 0.000000 0.000000 -5.884385 5.149984 -63.316625 1.069091 7.482084 0.711142 20.173782 -19.868008 -1.510878 0.000000 0.000000 0.000000 -0.115018 7.029346 -62.987430 1.407012 -1.929343 -0.751999 -6.388371 4.316536 4.368073 0.000000 0.000000 0.000000
52.313562 75.642287 360.019642 3.893304 -1.181213 63.519895 -0.054224 0.349627 -63.351534 -0.139541 0.189676 0.148284 13.818467 11.068302 -2.660755 0.000000 0.000000 0.000000 -3.411659 0.901272 -0.254000 16.292937 -17.913767 1.394864 -24.752583 8.429213 14.838197 40.700642 31.777067 -43.071142 0.000000 0.000000 0.000000 0.000000 0.000000 0.000000 -23.692420 -1.832036 5.438988 14.629943 -2.459385 2.327159 12.462247 0.572684 -18.367810 6.666250 -7.944439 31.499192 0.000000 0.000000 0.000000 0.000000 0.000000 0.000000 -5.621479 5.303709 -63.116553 1.247246 7.148982 0.730860 26.111411 -25.079825 -0.687474 0.000000 0.000000 0.000000 -0.139117 7.187974 -62.706567 1.486076 -1.976150 -0.782834 -2.690952 2.371810 2.113902 0.000000 0.000000 0.000000
52.316020 76.110760 360.087739 3.889735 -1.187185 63.760161 0.001440 0.316153 -63.591479 -0.052515 0.264947 0.155686 13.562423 11.063703 -2.569881 0.000000 0.000000 0.000000 -3.549434 0.799492 -0.268878 15.131829 -16.949820 1.237670 -23.765987 5.363650 15.538889 35.822027 30.869261 -38.798513 0.000000 0.000000 0.000000 0.000000 0.000000 0.000000 -19.810036 0.585178 5.222329 0.722787 -1.699425 2.263968 12.397354 0.804266 -24.012614 -1.002608 -4.285732 37.025035 0.000000 0.000000 0.000000 0.000000 0.000000 0.000000 -5.080906 5.539659 -63.435872 1.300367 6.519003 0.753995 26.858788 -25.861038 0.732059 0.000000 0.000000 0.000000 -0.286437 7.257285 -62.932515 1.641486 -1.880260 -0.789064 -0.094650 0.936508 0.507157 0.000000 0.000000 0.000000
52.415434 76.418587 360.118933 4.067214 -1.142176 63.422808 0.037167 0.341818 -63.249073 0.058214 0.341120 0.170501 13.447743 11.114023 -2.550918 0.000000 0.000000 0.000000 -3.831838 0.636060 -0.298151 14.222774 -16.015274 1.050060 -23.228357 3.048604 16.102245 38.003177 29.677921 -40.444934 0.000000 0.000000 0.000000 0.000000 0.000000 0.000000 -16.468172 2.794510 4.913656 -10.261490 -2.472499 2.885651 5.551370 5.020570 -26.836438 -4.191183 -2.612649 40.703708 0.000000 0.000000 0.000000 0.000000 0.000000 0.000000 -5.081990 5.887332 -63.126112 1.480232 6.160993 0.760186 24.103588 -23.802020 1.925758 0.000000 0.000000 0.000000 -0.574659 7.694009 -62.516685 1.965794 -1.953231 -0.854520 1.074439 0.132438 0.006502 0.000000 0.000000 0.000000
52.576489 76.580826 360.130581 4.328886 -1.060637 63.076561 0.060740 0.366096 -62.895294 0.135727 0.413078 0.186517 13.426100 11.052840 -2.613064 0.000000 0.000000 0.000000 -4.161720 0.452573 -0.333018 13.444718 -14.955765 0.790042 -21.896774 3.666343 14.502225 38.709257 27.469590 -40.008832 0.000000 0.000000 0.000000 0.000000 0.000000 0.000000 -16.195846 3.678534 5.080077 -16.204922 -2.933968 3.311633 5.387544 4.966770 -20.298470 -12.882407 -0.547505 37.509050 0.000000 0.000000 0.000000 0.000000 0.000000 0.000000 -5.495639 6.470525 -62.781531 1.931588 6.047449 0.784682 24.395898 -23.838565 1.190960 0.000000 0.000000 0.000000 -1.043126 8.253831 -62.069370 2.390622 -1.919992 -0.912116 -0.932042 1.931711 0.436656 0.000000 0.000000 0.000000
52.796409 76.555182 360.143199 4.676006 -0.986781 62.658334 0.062545 0.414607 -62.466593 0.200041 0.430175 0.205127 13.609378 11.072848 -2.786349 0.000000 0.000000 0.000000 -4.532888 0.340171 -0.368811 13.495757 -14.233767 0.457277 -18.710637 5.515342 10.951933 36.661609 30.009488 -39.882995 0.000000 0.000000 0.000000 0.000000 0.000000 0.000000 -18.895036 3.224916 5.741064 -14.488050 -4.051010 4.432221 6.611675 3.925469 -11.889529 -11.781782 -0.787306 34.277715 0.000000 0.000000 0.000000 0.000000 0.000000 0.000000 -5.708700 7.014878 -62.371650 2.146109 5.767053 0.805894 24.730737 -24.051581 1.528414 0.000000 0.000000 0.000000 -1.370404 8.947604 -61.531317 2.818355 -2.094856 -1.001731 1.042327 0.127410 0.006076 0.000000 0.000000 0.000000
53.061938 76.309374 360.162644 5.074939 -0.940547 62.043342 0.058999 0.465705 -61.838375 0.273288 0.399322 0.227833 13.520594 11.073949 -2.927161 0.000000 0.000000 0.000000 -4.961006 0.306064 -0.405877 14.568957 -14.053506 0.065818 -15.306498 8.397737 6.529346 32.183132 31.119094 -37.347462 0.000000 0.000000 0.000000 0.000000 0.000000 0.000000 -24.076624 1.454606 6.641409 -5.093041 -5.674874 6.086589 3.287064 4.835000 -3.002532 -2.231012 -4.470717 29.142055 0.000000 0.000000 0.000000 0.000000 0.000000 0.000000 -5.988333 7.561653 -61.749131 2.160847 5.414697 0.788970 25.078845 -23.919783 1.288750 0.000000 0.000000 0.000000 -1.492031 9.753371 -60.782569 3.081836 -2.646410 -1.160520 1.100890 0.257784 0.037118 0.000000 0.000000 0.000000
